<svg width="130" height="520" viewBox="0 0 130 520" fill="none" xmlns="http://www.w3.org/2000/svg">
<path d="M130 519.999C201.797 519.999 260 461.797 260 390C260 318.203 201.797 260 130 260C58.203 260 0 318.203 0 390C0 461.797 58.203 519.999 130 519.999Z" fill="#5036E6"/>
<path d="M130 520C95.5218 520 62.4559 506.304 38.0761 481.924C13.6964 457.544 0 424.479 0 390H130V520Z" fill="#5036E6"/>
<path d="M129.999 325C94.1005 325 64.9991 354.102 64.9991 390C64.9991 425.899 94.1005 455 129.999 455C165.898 455 194.999 425.899 194.999 390C194.999 354.102 165.898 325 129.999 325Z" fill="black"/>
<path d="M65 390C65 372.761 71.8482 356.229 84.0381 344.039C96.2279 331.849 112.761 325.001 130 325.001C147.239 325.001 163.772 331.849 175.962 344.039C188.152 356.229 195 372.761 195 390L65 390Z" fill="white"/>
<path d="M0 130C0 58.2029 58.203 -6.10352e-05 130 -6.10352e-05L130 260C58.203 260 0 201.797 0 130Z" fill="#5036E6"/>
<path d="M130 0.000335693C95.5219 0.000335693 62.4558 13.6967 38.0761 38.0764C13.6964 62.4561 0 95.5221 0 130L130 130L130 0.000335693Z" fill="#5036E6"/>
<path d="M130 65.0001C165.899 65.0001 195 94.1016 195 130C195 165.899 165.899 195 130 195C94.1015 195 65 165.899 65 130C65 94.1016 94.1015 65.0001 130 65.0001Z" fill="black"/>
</svg>
