<svg width="26" height="36" viewBox="0 0 26 36" fill="none" xmlns="http://www.w3.org/2000/svg">
<path d="M0 32.7946H26V36H0V32.7946Z" fill="white"/>
<path d="M0 29.5889H26V32.7943H0V29.5889Z" fill="white"/>
<path fill-rule="evenodd" clip-rule="evenodd" d="M17.2697 9.36987H8.73026C8.51013 22.3665 6.47636 32.5479 4 32.5479C3.91737 32.5479 3.83522 32.5366 3.75363 32.5142L3.75 32.5479H4H22H22.25L22.2464 32.5142C22.1648 32.5366 22.0826 32.5479 22 32.5479C19.5236 32.5479 17.4899 22.3665 17.2697 9.36987Z" fill="white"/>
<path d="M21.5 8.38354C21.5 13.0136 17.6944 16.7671 13 16.7671C8.30558 16.7671 4.5 13.0136 4.5 8.38354C4.5 3.75344 8.30558 0 13 0C17.6944 0 21.5 3.75344 21.5 8.38354Z" fill="white"/>
</svg>
